<?xml version="1.0" encoding="UTF-8"?>
<svg width="1955px" height="909px" viewBox="0 0 1955 909" version="1.1" xmlns="http://www.w3.org/2000/svg" xmlns:xlink="http://www.w3.org/1999/xlink">
    <title>Group 8</title>
    <g id="Homepage" stroke="none" stroke-width="1" fill="none" fill-rule="evenodd">
        <g id="Group-8" fill="#181D23">
            <path d="M1853.11803,477.999977 C1870.96016,477.97882 1885.4818,492.284099 1885.78085,510.047255 L1885.78555,510.58658 L1886.00002,746.188561 C1886.0212,764.020464 1871.69921,778.525265 1853.91529,778.834359 L1853.37534,778.83937 L1714.83588,778.946457 L1664.30682,779 L1613.7992,778.946457 C1596.36041,778.490587 1582.30514,764.453423 1582.00488,746.986615 L1581.9999,746.456278 C1581.93641,671.248476 1612.92345,603.293128 1662.78995,554.549854 L1664.30682,553.078679 C1712.05919,507.141914 1776.73972,478.638327 1848.13288,478.020896 L1853.11803,477.999977 Z" id="Fill-1" opacity="0.05"></path>
            <path d="M1922.11803,501.999977 C1939.96016,501.97882 1954.4818,516.284099 1954.78085,534.047255 L1954.78555,534.58658 L1955.00002,770.188561 C1955.0212,788.020464 1940.69921,802.525265 1922.91529,802.834359 L1922.37534,802.83937 L1783.83588,802.946457 L1733.30682,803 L1682.7992,802.946457 C1665.36041,802.490587 1651.30514,788.453423 1651.00488,770.986615 L1650.9999,770.456278 C1650.93641,695.248476 1681.92345,627.293128 1731.78995,578.549854 L1733.30682,577.078679 C1781.05919,531.141914 1845.73972,502.638327 1917.13288,502.020896 L1922.11803,501.999977 Z" id="Fill-1-Copy-3" opacity="0.05"></path>
            <path d="M449.322957,361 C422.289429,360.967874 400.337753,382.886045 400.321672,409.934 L400.321672,409.934 L400,763.728337 C399.967872,790.776293 421.887383,812.726626 448.936993,812.758788 L448.936993,812.758788 L656.746186,812.919596 L732.539772,813 L808.301195,812.919596 C834.723614,812.22812 855.967689,790.728051 856,764.130358 L856,764.130358 C856.096344,650.052951 808.671076,547.087398 732.539772,473.742733 L732.539772,473.742733 C660.187694,404.064498 561.927814,361.09652 453.552474,361.016116 L453.552474,361.016116 L449.322957,361 Z" id="Fill-1-Copy" opacity="0.05"></path>
            <path d="M81.01512,0 C36.6113642,-0.052667248 0.554774825,35.8795556 0.528359742,80.2214477 L0.528359742,80.2214477 L0,660.224996 C-0.0527721016,704.566888 35.9509871,740.551836 80.381158,740.604561 L80.381158,740.604561 L421.716871,740.868187 L546.21116,741 L670.65262,740.868187 C714.052603,739.734595 748.946928,704.4878 749,660.884061 L749,660.884061 C749.158249,473.867781 671.260167,305.068057 546.21116,184.828242 L546.21116,184.828242 C427.369699,70.599099 265.973537,0.158233547 87.962287,0.02642055 L87.962287,0.02642055 L81.01512,0 Z" id="Fill-1-Copy-5" opacity="0.05"></path>
            <path d="M424.322957,458 C397.289429,457.967945 375.337753,479.837624 375.321672,506.825739 L375.321672,506.825739 L375,859.837346 C374.967872,886.825461 396.887383,908.727231 423.936993,908.759321 L423.936993,908.759321 L631.746186,908.919774 L707.539772,909 L783.301195,908.919774 C809.723614,908.229828 830.967689,886.777325 831,860.238477 L831,860.238477 C831.096344,746.413454 783.671076,643.6757 707.539772,570.493302 L707.539772,570.493302 C635.187694,500.969222 536.927814,458.096307 428.552474,458.016081 L428.552474,458.016081 L424.322957,458 Z" id="Fill-1-Copy-4" opacity="0.05"></path>
            <path d="M1770.11803,565.999977 C1787.96016,565.97882 1802.4818,580.284099 1802.78085,598.047255 L1802.78555,598.58658 L1803.00002,834.188561 C1803.0212,852.020464 1788.69921,866.525265 1770.91529,866.834359 L1770.37534,866.83937 L1631.83588,866.946457 L1581.30682,867 L1530.7992,866.946457 C1513.36041,866.490587 1499.30514,852.453423 1499.00488,834.986615 L1498.9999,834.456278 C1498.93641,759.248476 1529.92345,691.293128 1579.78995,642.549854 L1581.30682,641.078679 C1629.05919,595.141914 1693.73972,566.638327 1765.13288,566.020896 L1770.11803,565.999977 Z" id="Fill-1-Copy-2" opacity="0.05"></path>
        </g>
    </g>
</svg>